<?xml version="1.0" encoding="UTF-8" standalone="no"?>
<!DOCTYPE svg PUBLIC "-//W3C//DTD SVG 1.1//EN" "http://www.w3.org/Graphics/SVG/1.1/DTD/svg11.dtd">
<svg xmlns="http://www.w3.org/2000/svg" version="1.1" viewBox="0 0 422 343">
<path fill="#436c81" fill-opacity="0.788" d="
  M 230.85 277.10
  C 222.35 284.22 213.68 283.60 205.54 276.46
  C 193.01 265.45 180.26 252.50 167.57 240.81
  Q 138.65 214.19 111.53 185.72
  C 108.21 182.24 105.12 177.49 104.53 172.68
  C 104.01 168.42 106.91 161.93 109.51 159.02
  C 126.66 139.77 144.23 120.68 163.14 103.13
  Q 181.79 85.82 195.27 72.52
  Q 201.88 65.99 207.74 61.49
  C 218.81 53.00 225.61 58.72 235.21 66.78
  Q 242.26 72.70 247.70 78.30
  C 270.60 101.82 293.42 125.52 317.53 147.81
  C 323.03 152.89 330.35 159.69 332.14 166.73
  C 335.12 178.39 316.71 193.83 308.92 201.17
  C 294.71 214.58 272.96 235.90 249.64 259.71
  Q 240.68 268.87 230.85 277.10
  Z
  M 242.89 264.92
  C 254.78 252.79 266.87 240.88 278.58 228.58
  C 289.13 217.51 311.13 199.15 325.31 181.75
  C 330.95 174.83 333.10 168.33 327.32 160.91
  Q 320.95 152.72 311.64 144.16
  C 292.76 126.82 274.66 108.66 257.23 89.87
  C 247.92 79.85 239.39 71.70 229.83 63.92
  C 218.58 54.76 210.38 59.34 201.44 67.93
  C 186.10 82.66 170.81 97.38 156.36 112.99
  C 140.89 129.70 122.28 144.13 108.68 162.43
  C 102.27 171.04 106.91 177.90 113.33 185.29
  Q 116.27 188.67 120.53 192.87
  Q 158.84 230.61 197.36 268.13
  C 203.95 274.55 213.15 282.83 221.38 281.09
  C 228.46 279.59 237.88 270.04 242.89 264.92
  Z"
/>
<path fill="#3d6780" fill-opacity="0.745" d="
  M 234.42 107.46
  C 255.53 116.36 272.64 135.63 274.63 159.20
  C 277.46 192.68 255.92 220.18 222.81 225.11
  C 188.94 230.15 157.49 202.02 157.70 168.02
  C 157.81 151.67 163.55 132.58 176.14 121.37
  C 188.33 110.52 201.64 107.05 217.76 106.27
  Q 218.10 106.25 218.68 105.93
  L 219.32 105.59
  A 1.30 0.24 -31.5 0 1 220.25 105.23
  L 226.50 106.06
  Q 228.96 106.38 229.96 106.27
  Q 232.84 105.93 233.70 106.85
  Q 234.18 107.36 234.42 107.46
  Z
  M 160.74 152.00
  C 154.99 172.87 163.66 193.25 177.79 208.22
  C 199.22 230.92 238.94 229.29 258.56 204.82
  Q 271.60 188.56 273.76 167.73
  Q 273.98 165.54 273.65 163.36
  Q 269.20 133.88 245.42 115.10
  C 240.83 111.48 237.50 110.93 232.89 108.84
  C 230.23 107.64 227.12 107.24 224.31 107.44
  C 216.47 108.02 209.61 107.84 200.99 109.84
  C 179.15 114.90 166.53 130.98 160.74 152.00
  Z"
/>
<path fill="#3d6780" fill-opacity="0.745" d="
  M 256.93 159.05
  C 258.87 178.56 245.21 202.19 224.75 204.45
  Q 207.62 206.34 194.18 195.07
  C 185.62 187.90 181.96 179.12 180.94 168.00
  Q 179.34 150.56 192.54 137.54
  Q 194.29 135.81 205.50 129.00
  Q 206.06 128.66 206.38 127.96
  A 1.15 0.90 -81.4 0 1 207.03 127.35
  C 216.50 124.57 227.48 127.56 237.21 130.43
  A 1.32 1.26 -5.7 0 1 237.95 131.01
  C 238.61 132.12 238.86 132.92 239.96 133.75
  C 247.45 139.42 255.94 149.19 256.93 159.05
  Z
  M 256.10 159.44
  C 251.23 139.39 233.90 128.97 214.43 127.45
  Q 212.70 127.32 211.19 128.16
  C 204.86 131.67 197.37 134.99 192.69 139.94
  C 185.79 147.24 181.35 157.77 182.76 168.03
  Q 186.64 196.19 212.75 203.00
  C 224.37 206.03 233.87 201.41 242.49 194.09
  C 250.75 187.06 258.74 170.35 256.10 159.44
  Z
  M 238.57 198.32
  C 238.08 197.86 234.34 200.66 238.34 198.85
  A 0.41 0.28 -32.2 0 0 238.57 198.32
  Z
  M 234.89 200.51
  Q 230.10 202.58 235.35 200.59
  Q 235.44 200.56 235.34 200.53
  L 235.25 200.50
  A 0.56 0.49 39.8 0 0 234.89 200.51
  Z"
/>
<path fill="#436c81" fill-opacity="0.788" d="
  M 236.49 170.55
  C 231.97 197.02 193.21 186.81 199.99 158.99
  C 201.21 153.98 204.18 150.69 209.01 148.31
  C 212.47 146.62 216.11 144.12 218.87 145.73
  Q 219.32 146.00 219.79 146.02
  C 232.83 146.70 238.50 158.81 236.49 170.55
  Z
  M 202.07 158.42
  C 200.70 167.02 203.20 174.69 209.16 180.88
  C 219.23 191.32 233.46 181.57 235.80 169.80
  C 237.69 160.32 231.71 149.86 221.85 147.76
  Q 217.23 146.78 215.75 147.23
  C 210.73 148.77 203.01 152.56 202.07 158.42
  Z"
/>
<path fill="#436c81" fill-opacity="0.788" d="
  M 238.34 198.85
  C 234.34 200.66 238.08 197.86 238.57 198.32
  A 0.41 0.28 -32.2 0 1 238.34 198.85
  Z"
/>
<path fill="#436c81" fill-opacity="0.788" d="
  M 235.25 200.50
  L 235.34 200.53
  Q 235.44 200.56 235.35 200.59
  Q 230.10 202.58 234.89 200.51
  A 0.56 0.49 39.8 0 1 235.25 200.50
  Z"
/>
</svg>
